# xmcd
#
# Track frame offsets: 
#        150
#        20586
#        38854
#        53022
#        71856
#        87494
#        109880
#        131279
#        151496
#        173074
#        190170
#
# Disc length: 2709 seconds
#
# Revision: 1
# Processed by: cddbd v1.5.2PL0 Copyright (c) Steve Scherf et al.
# Submitted via: ExactAudioCopy v0.99pb4
#
DISCID=920a930b
DTITLE=Bat For Lashes - Two Suns
DYEAR=2009
DGENRE=Ambient
TTITLE0=Glass
TTITLE1=Sleep Alone
TTITLE2=Moon And Moon
TTITLE3=Daniel
TTITLE4=Peace Of Mind
TTITLE5=Siren Song
TTITLE6=Pearl's Dream
TTITLE7=Good Love
TTITLE8=Two Planets
TTITLE9=Travelling Woman
TTITLE10=The Big Sleep
EXTD=
EXTT0=
EXTT1=
EXTT2=
EXTT3=
EXTT4=
EXTT5=
EXTT6=
EXTT7=
EXTT8=
EXTT9=
EXTT10=
PLAYORDER=
